<svg width="155" height="27" viewBox="0 0 155 27" fill="none" xmlns="http://www.w3.org/2000/svg">
  <path
    d="M10.0689 25.1097C7.31154 25.1097 6.44407 24.133 6.44407 20.6044C6.44407 18.147 5.4217 13.7363 2.07574 13.4527C5.60758 12.5391 5.79347 9.07351 5.79347 6.5846C5.79347 2.86698 6.66094 1.89032 9.41826 1.89032V0C5.29777 0 4.24441 2.11085 4.24441 6.5846C4.24441 9.45158 3.284 12.3186 0 12.4131V14.5554C3.25302 14.5554 4.89502 18.1785 4.89502 20.6044C5.01894 24.9522 6.04132 27 10.0689 27V25.1097Z"
    fill="white" />
  <path
    d="M18.8152 24.4796V12.3186L23.2145 22.5578H25.724L30.0924 12.3501V24.4796H34.1509V2.4259H30.1543L24.4538 16.3197L18.7842 2.4259H14.7567V24.4796H18.8152Z"
    fill="white" />
  <path
    d="M52.3249 24.4796V20.5414H41.6674V15.2485H51.9841V11.3104H41.6674V6.36406H52.3249V2.4259H37.6089V24.4796H52.3249Z"
    fill="white" />
  <path d="M64.5734 24.4796V6.36406H70.9865V2.4259H54.1327V6.36406H60.4839V24.4796H64.5734Z" fill="white" />
  <path
    d="M88.697 24.4796L80.6729 2.4259H76.6763L68.6522 24.4796H72.8037L74.3837 20.0688H82.9965L84.5455 24.4796H88.697ZM78.6901 7.90782L81.6643 16.3197H75.7159L78.6901 7.90782Z"
    fill="white" />
  <path d="M94.3414 24.4796V15.2485H104.658V11.3104H94.3414V6.36406H104.999V2.4259H90.2829V24.4796H94.3414Z"
    fill="white" />
  <path
    d="M123.823 24.4796L115.799 2.4259H111.802L103.778 24.4796H107.93L109.51 20.0688H118.123L119.672 24.4796H123.823ZM113.816 7.90782L116.79 16.3197H110.842L113.816 7.90782Z"
    fill="white" />
  <path
    d="M136.5 12.9172C140.683 12.224 141.457 9.95566 141.457 8.12835C141.457 2.4259 134.951 2.4259 132.504 2.4259H125.409V24.4796H132.875C135.199 24.4796 141.581 24.4796 141.581 18.1785C141.581 16.2567 140.776 13.7993 136.5 12.9172ZM132.039 6.36406C134.455 6.36406 137.337 6.45858 137.337 8.78996C137.337 11.1214 134.827 11.1529 132.039 11.1529H129.467V6.36406H132.039ZM129.467 20.5414V14.776H131.76C134.641 14.776 137.523 15.1225 137.523 17.8635C137.523 19.9113 135.85 20.5414 131.76 20.5414H129.467Z"
    fill="white" />
  <path
    d="M144.931 27C148.959 27 149.981 24.9522 150.105 20.6044C150.105 18.1785 151.747 14.5554 155 14.5554V12.4131C151.716 12.3186 150.756 9.45158 150.756 6.5846C150.756 2.11085 149.702 0 145.582 0V1.89032C148.339 1.89032 149.207 2.86698 149.207 6.5846C149.207 9.07351 149.392 12.5391 152.924 13.4527C149.578 13.7363 148.556 18.147 148.556 20.6044C148.556 24.133 147.688 25.1097 144.931 25.1097V27Z"
    fill="white" />
</svg>