<?xml version="1.0" standalone="no"?>
<!DOCTYPE svg PUBLIC "-//W3C//DTD SVG 20010904//EN"
 "http://www.w3.org/TR/2001/REC-SVG-20010904/DTD/svg10.dtd">
<svg version="1.0" xmlns="http://www.w3.org/2000/svg"
 width="1992.000000pt" height="1117.000000pt" viewBox="0 0 1992.000000 1117.000000"
 preserveAspectRatio="xMidYMid meet">

<g transform="translate(0.000000,1117.000000) scale(0.100000,-0.100000)"
fill="#000000" stroke="none">
<path d="M54 11159 c-11 -6 -28 -23 -37 -39 -16 -26 -17 -408 -17 -5534 0
-3937 3 -5512 11 -5529 6 -13 23 -31 39 -40 26 -16 708 -17 9909 -17 7082 0
9887 3 9904 11 13 6 31 23 40 39 16 26 17 415 17 5534 0 3937 -3 5512 -11
5529 -6 13 -23 31 -39 40 -26 16 -708 17 -9912 16 -6627 0 -9890 -4 -9904 -10z"/>
</g>
</svg>
